<svg aria-hidden="true" style="position: absolute; width: 0; height: 0; overflow: hidden;" version="1.1" xmlns="http://www.w3.org/2000/svg" xmlns:xlink="http://www.w3.org/1999/xlink">
<defs>
<symbol id="icon-ing" viewBox="0 0 30 32">
<path d="M15.111 8.497c-4.222 0-7.587 3.431-7.587 7.587 0 4.222 3.365 7.587 7.587 7.587 4.156 0 7.587-3.365 7.587-7.587 0-4.156-3.431-7.587-7.587-7.587zM15.111 21.031c-2.705 0-4.948-2.177-4.948-4.948 0-2.705 2.177-4.882 4.948-4.882 2.705 0 4.882 2.177 4.882 4.882 0 2.771-2.177 4.948-4.882 4.948zM24.743 8.233c0-0.99-0.792-1.781-1.781-1.781s-1.781 0.792-1.781 1.781 0.792 1.781 1.781 1.781c0.99 0 1.781-0.792 1.781-1.781zM29.757 10.014c-0.132-2.375-0.66-4.486-2.375-6.201s-3.826-2.243-6.201-2.375c-2.441-0.132-9.764-0.132-12.205 0-2.375 0.132-4.42 0.66-6.201 2.375-1.715 1.715-2.243 3.826-2.375 6.201-0.132 2.441-0.132 9.764 0 12.205 0.132 2.375 0.66 4.42 2.375 6.201 1.781 1.715 3.826 2.243 6.201 2.375 2.441 0.132 9.764 0.132 12.205 0 2.375-0.132 4.486-0.66 6.201-2.375 1.715-1.781 2.243-3.826 2.375-6.201 0.132-2.441 0.132-9.764 0-12.205zM26.59 24.792c-0.462 1.319-1.517 2.309-2.771 2.837-1.979 0.792-6.597 0.594-8.708 0.594-2.177 0-6.795 0.198-8.708-0.594-1.319-0.528-2.309-1.517-2.837-2.837-0.792-1.913-0.594-6.531-0.594-8.708 0-2.111-0.198-6.729 0.594-8.708 0.528-1.253 1.517-2.243 2.837-2.771 1.913-0.792 6.531-0.594 8.708-0.594 2.111 0 6.729-0.198 8.708 0.594 1.253 0.462 2.243 1.517 2.771 2.771 0.792 1.979 0.594 6.597 0.594 8.708 0 2.177 0.198 6.795-0.594 8.708z"></path>
</symbol>
<symbol id="icon-in" viewBox="0 0 30 32">
<path d="M6.853 30.441v-19.787h-6.154v19.787h6.154zM3.743 8.007c1.985 0 3.574-1.654 3.574-3.64 0-1.919-1.588-3.507-3.574-3.507-1.919 0-3.507 1.588-3.507 3.507 0 1.985 1.588 3.64 3.507 3.64zM29.816 30.441h0.066v-10.853c0-5.294-1.191-9.397-7.412-9.397-2.978 0-4.963 1.654-5.824 3.176h-0.066v-2.713h-5.89v19.787h6.154v-9.794c0-2.581 0.463-5.029 3.64-5.029s3.243 2.912 3.243 5.228v9.595h6.088z"></path>
</symbol>
<symbol id="icon-tw" viewBox="0 0 38 32">
<path d="M34.425 8.033c1.5-1.125 2.85-2.475 3.9-4.050-1.35 0.6-2.925 1.050-4.5 1.2 1.65-0.975 2.85-2.475 3.45-4.35-1.5 0.9-3.225 1.575-4.95 1.95-1.5-1.575-3.525-2.475-5.775-2.475-4.35 0-7.875 3.525-7.875 7.875 0 0.6 0.075 1.2 0.225 1.8-6.525-0.375-12.375-3.525-16.275-8.25-0.675 1.125-1.050 2.475-1.050 3.975 0 2.7 1.35 5.1 3.525 6.525-1.275-0.075-2.55-0.375-3.6-0.975v0.075c0 3.825 2.7 6.975 6.3 7.725-0.6 0.15-1.35 0.3-2.025 0.3-0.525 0-0.975-0.075-1.5-0.15 0.975 3.15 3.9 5.4 7.35 5.475-2.7 2.1-6.075 3.375-9.75 3.375-0.675 0-1.275-0.075-1.875-0.15 3.45 2.25 7.575 3.525 12.075 3.525 14.475 0 22.35-11.925 22.35-22.35 0-0.375 0-0.675 0-1.050z"></path>
</symbol>
<symbol id="icon-f" viewBox="0 0 17 32">
<path d="M15.467 17.763l0.829-5.447h-5.27v-3.553c0-1.539 0.711-2.961 3.079-2.961h2.428v-4.678c0 0-2.191-0.414-4.263-0.414-4.322 0-7.164 2.664-7.164 7.401v4.204h-4.855v5.447h4.855v13.263h5.921v-13.263h4.441z"></path>
</symbol>
</defs>
</svg>
